<svg viewBox="0 0 200 200" xmlns="http://www.w3.org/2000/svg">
  <path fill="#BAE6FF" d="M31.4,-55.8C40.2,-49.2,46.6,-39.9,56.7,-30.2C66.8,-20.4,80.6,-10.2,85.1,2.6C89.6,15.4,84.8,30.8,75.2,41.4C65.6,52.1,51.3,58.1,38,65.1C24.6,72,12.3,80,-0.8,81.4C-13.9,82.8,-27.8,77.5,-37,68.1C-46.1,58.8,-50.6,45.2,-60.2,33.2C-69.9,21.2,-84.9,10.6,-84.4,0.3C-83.8,-10,-67.8,-19.9,-56.2,-28.6C-44.6,-37.3,-37.3,-44.7,-28.7,-51.3C-20,-58,-10,-63.9,0.6,-65C11.3,-66.1,22.5,-62.3,31.4,-55.8Z" transform="translate(100 100)" />
</svg>